<?xml version="1.0" encoding="UTF-8" standalone="no"?>
<!-- Created with Inkscape (http://www.inkscape.org/) -->

<svg
   xmlns:dc="http://purl.org/dc/elements/1.1/"
   xmlns:cc="http://creativecommons.org/ns#"
   xmlns:rdf="http://www.w3.org/1999/02/22-rdf-syntax-ns#"
   xmlns:svg="http://www.w3.org/2000/svg"
   xmlns="http://www.w3.org/2000/svg"
   xmlns:sodipodi="http://sodipodi.sourceforge.net/DTD/sodipodi-0.dtd"
   xmlns:inkscape="http://www.inkscape.org/namespaces/inkscape"
   width="96.868546mm"
   height="109.72064mm"
   viewBox="0 0 343.235 388.77393"
   id="svg4469"
   version="1.1"
   inkscape:version="0.91 r13725"
   sodipodi:docname="Logo.svg">
  <defs
     id="defs4471">
    <clipPath
       clipPathUnits="userSpaceOnUse"
       id="clipPath26">
      <path
         d="m 0,1800 2880,0 L 2880,0 0,0 0,1800 Z"
         id="path28"
         inkscape:connector-curvature="0" />
    </clipPath>
  </defs>
  <sodipodi:namedview
     id="base"
     pagecolor="#ffffff"
     bordercolor="#666666"
     borderopacity="1.0"
     inkscape:pageopacity="0.0"
     inkscape:pageshadow="2"
     inkscape:zoom="0.35"
     inkscape:cx="388.04606"
     inkscape:cy="17.24412"
     inkscape:document-units="px"
     inkscape:current-layer="layer1"
     showgrid="false"
     fit-margin-top="0"
     fit-margin-left="0"
     fit-margin-right="0"
     fit-margin-bottom="0"
     inkscape:window-width="1360"
     inkscape:window-height="704"
     inkscape:window-x="1600"
     inkscape:window-y="27"
     inkscape:window-maximized="1" />
  <metadata
     id="metadata4474">
    <rdf:RDF>
      <cc:Work
         rdf:about="">
        <dc:format>image/svg+xml</dc:format>
        <dc:type
           rdf:resource="http://purl.org/dc/dcmitype/StillImage" />
        <dc:title></dc:title>
      </cc:Work>
    </rdf:RDF>
  </metadata>
  <g
     inkscape:label="Layer 1"
     inkscape:groupmode="layer"
     id="layer1"
     transform="translate(525.9032,-160.83239)">
    <path
       d="m -242.40571,247.76864 -223.76,0 0,-86.93625 223.76,0 0,86.93625 z"
       style="fill:#282828;fill-opacity:1;fill-rule:nonzero;stroke:none"
       id="path12"
       inkscape:connector-curvature="0" />
    <path
       d="m -242.40571,345.40864 -178.4975,0 0,-86.93625 178.4975,0 0,86.93625 z"
       style="fill:#282828;fill-opacity:1;fill-rule:nonzero;stroke:none"
       id="path14"
       inkscape:connector-curvature="0" />
    <path
       d="m -242.40571,443.04864 -223.76,0 0,-86.93625 223.76,0 0,86.93625 z"
       style="fill:#282828;fill-opacity:1;fill-rule:nonzero;stroke:none"
       id="path16"
       inkscape:connector-curvature="0" />
    <g
       id="g18"
       transform="matrix(1.25,0,0,-1.25,-430.63211,184.75077)">
      <path
         d="m 0,0 -14.115,0 0,7.414 36.425,0 0,-7.414 -14.115,0 0,-38.636 -8.195,0 L 0,0 Z"
         style="fill:#ffffff;fill-opacity:1;fill-rule:nonzero;stroke:none"
         id="path20"
         inkscape:connector-curvature="0" />
    </g>
    <g
       transform="matrix(1.25,0,0,-1.25,-2154.2857,2185.8562)"
       id="g22">
      <g
         id="g24"
         clip-path="url(#clipPath26)">
        <g
           id="g30"
           transform="translate(1421.397,1588.7842)">
          <path
             d="m 0,0 c 1.17,0 2.341,0.055 3.511,0.165 1.171,0.107 2.243,0.367 3.221,0.779 0.975,0.412 1.767,1.042 2.372,1.886 0.608,0.846 0.91,2.028 0.91,3.545 0,1.344 -0.281,2.429 -0.844,3.253 -0.565,0.823 -1.301,1.44 -2.212,1.852 -0.91,0.413 -1.919,0.685 -3.024,0.813 -1.107,0.131 -2.18,0.196 -3.219,0.196 l -7.089,0 L -6.374,0 0,0 Z m -14.57,19.514 16,0 c 2.21,0 4.346,-0.205 6.406,-0.618 2.059,-0.412 3.893,-1.118 5.497,-2.114 1.604,-0.999 2.884,-2.341 3.837,-4.033 0.954,-1.69 1.431,-3.836 1.431,-6.439 0,-3.34 -0.923,-6.136 -2.763,-8.391 -1.845,-2.255 -4.479,-3.621 -7.905,-4.097 l 12.229,-20.358 -9.886,0 -10.667,19.514 -5.983,0 0,-19.514 -8.196,0 0,46.05 z"
             style="fill:#ffffff;fill-opacity:1;fill-rule:nonzero;stroke:none"
             id="path32"
             inkscape:connector-curvature="0" />
        </g>
        <g
           id="g34"
           transform="translate(1447.8018,1608.2979)">
          <path
             d="m 0,0 30.504,0 0,-7.414 -22.308,0 0,-11.318 21.137,0 0,-7.416 -21.137,0 0,-12.486 23.481,0 0,-7.416 L 0,-46.05 0,0 Z"
             style="fill:#ed2466;fill-opacity:1;fill-rule:nonzero;stroke:none"
             id="path36"
             inkscape:connector-curvature="0" />
        </g>
        <g
           id="g38"
           transform="translate(1510.1113,1598.4121)">
          <path
             d="m 0,0 c -0.867,1.257 -2.027,2.179 -3.479,2.763 -1.455,0.587 -2.983,0.88 -4.587,0.88 -0.954,0 -1.876,-0.11 -2.763,-0.327 -0.889,-0.217 -1.692,-0.563 -2.407,-1.039 -0.715,-0.48 -1.29,-1.097 -1.724,-1.855 -0.435,-0.758 -0.65,-1.659 -0.65,-2.698 0,-1.561 0.54,-2.756 1.626,-3.578 1.084,-0.825 2.428,-1.54 4.033,-2.146 1.603,-0.607 3.358,-1.194 5.267,-1.757 1.907,-0.565 3.664,-1.344 5.269,-2.341 1.604,-0.998 2.948,-2.321 4.033,-3.968 1.082,-1.648 1.626,-3.838 1.626,-6.57 0,-2.469 -0.456,-4.63 -1.366,-6.472 -0.91,-1.843 -2.136,-3.371 -3.676,-4.584 -1.538,-1.216 -3.328,-2.126 -5.366,-2.732 -2.038,-0.608 -4.184,-0.91 -6.439,-0.91 -2.86,0 -5.616,0.476 -8.259,1.43 -2.647,0.953 -4.923,2.558 -6.83,4.813 l 6.179,5.986 c 0.996,-1.519 2.31,-2.702 3.936,-3.548 1.626,-0.844 3.348,-1.268 5.17,-1.268 0.954,0 1.907,0.131 2.863,0.391 0.951,0.26 1.821,0.651 2.601,1.171 0.779,0.522 1.409,1.182 1.885,1.983 0.477,0.803 0.715,1.726 0.715,2.765 0,1.693 -0.541,2.991 -1.625,3.902 -1.086,0.911 -2.429,1.681 -4.031,2.31 -1.607,0.627 -3.361,1.225 -5.272,1.788 -1.906,0.563 -3.663,1.335 -5.267,2.31 -1.604,0.975 -2.949,2.277 -4.03,3.902 -1.085,1.626 -1.629,3.805 -1.629,6.536 0,2.384 0.489,4.446 1.464,6.179 0.977,1.735 2.254,3.178 3.837,4.327 1.583,1.149 3.392,2.004 5.433,2.569 2.036,0.563 4.117,0.844 6.243,0.844 2.427,0 4.78,-0.367 7.056,-1.106 C 2.112,9.214 4.163,8 5.983,6.308 L 0,0 Z"
             style="fill:#ffffff;fill-opacity:1;fill-rule:nonzero;stroke:none"
             id="path40"
             inkscape:connector-curvature="0" />
        </g>
        <g
           id="g42"
           transform="translate(1412.7437,1491.6118)">
          <path
             d="m 0,0 c 2.558,0 4.978,0.291 7.254,0.877 2.277,0.584 4.26,1.495 5.95,2.732 1.692,1.235 3.025,2.839 4,4.813 0.977,1.974 1.463,4.367 1.463,7.187 0,2.774 -0.433,5.161 -1.298,7.154 -0.868,1.995 -2.072,3.611 -3.612,4.846 -1.54,1.237 -3.361,2.148 -5.464,2.731 -2.102,0.587 -4.412,0.88 -6.927,0.88 l -7.478,0 L -6.112,0 0,0 Z m -14.307,38.634 18.145,0 c 3.035,0 5.962,-0.467 8.782,-1.397 2.818,-0.935 5.311,-2.353 7.48,-4.262 2.167,-1.907 3.902,-4.303 5.202,-7.187 1.302,-2.885 1.952,-6.277 1.952,-10.179 0,-3.945 -0.748,-7.361 -2.243,-10.243 C 23.514,2.481 21.583,0.095 19.221,-1.791 16.858,-3.676 14.234,-5.085 11.352,-6.017 8.467,-6.951 5.638,-7.416 2.863,-7.416 l -17.17,0 0,46.05 z"
             style="fill:#ffffff;fill-opacity:1;fill-rule:nonzero;stroke:none"
             id="path44"
             inkscape:connector-curvature="0" />
        </g>
        <g
           id="g46"
           transform="translate(1447.8018,1530.2461)">
          <path
             d="m 0,0 30.504,0 0,-7.414 -22.308,0 0,-11.318 21.137,0 0,-7.416 -21.137,0 0,-12.486 23.481,0 0,-7.416 L 0,-46.05 0,0 Z"
             style="fill:#0495da;fill-opacity:1;fill-rule:nonzero;stroke:none"
             id="path48"
             inkscape:connector-curvature="0" />
        </g>
        <g
           id="g50"
           transform="translate(1378.9229,1444.7827)">
          <path
             d="m 0,0 -14.115,0 0,7.413 36.425,0 0,-7.413 -14.115,0 0,-38.637 -8.195,0 L 0,0 Z"
             style="fill:#ffffff;fill-opacity:1;fill-rule:nonzero;stroke:none"
             id="path52"
             inkscape:connector-curvature="0" />
        </g>
        <g
           id="g54"
           transform="translate(1421.397,1432.6821)">
          <path
             d="m 0,0 c 1.17,0 2.341,0.055 3.511,0.165 1.171,0.107 2.243,0.366 3.221,0.779 0.975,0.412 1.767,1.042 2.372,1.886 0.608,0.846 0.91,2.028 0.91,3.544 0,1.345 -0.281,2.429 -0.844,3.254 -0.565,0.823 -1.301,1.44 -2.212,1.852 -0.91,0.413 -1.919,0.685 -3.024,0.813 -1.107,0.131 -2.18,0.195 -3.219,0.195 l -7.089,0 L -6.374,0 0,0 Z m -14.57,19.514 16,0 c 2.21,0 4.346,-0.205 6.406,-0.618 2.059,-0.412 3.893,-1.118 5.497,-2.114 1.604,-0.999 2.884,-2.341 3.837,-4.033 0.954,-1.691 1.431,-3.836 1.431,-6.439 0,-3.34 -0.923,-6.136 -2.763,-8.391 -1.845,-2.255 -4.479,-3.621 -7.905,-4.098 l 12.229,-20.358 -9.886,0 -10.667,19.515 -5.983,0 0,-19.515 -8.196,0 0,46.051 z"
             style="fill:#ffffff;fill-opacity:1;fill-rule:nonzero;stroke:none"
             id="path56"
             inkscape:connector-curvature="0" />
        </g>
        <g
           id="g58"
           transform="translate(1447.8018,1452.1958)">
          <path
             d="m 0,0 30.504,0 0,-7.413 -22.308,0 0,-11.319 21.137,0 0,-7.416 -21.137,0 0,-12.486 23.481,0 0,-7.416 L 0,-46.05 0,0 Z"
             style="fill:#5fbb56;fill-opacity:1;fill-rule:nonzero;stroke:none"
             id="path60"
             inkscape:connector-curvature="0" />
        </g>
        <g
           id="g62"
           transform="translate(1510.1113,1442.3101)">
          <path
             d="m 0,0 c -0.867,1.256 -2.027,2.179 -3.479,2.763 -1.455,0.587 -2.983,0.88 -4.587,0.88 -0.954,0 -1.876,-0.11 -2.763,-0.327 -0.889,-0.217 -1.692,-0.563 -2.407,-1.04 -0.715,-0.479 -1.29,-1.096 -1.724,-1.854 -0.435,-0.758 -0.65,-1.659 -0.65,-2.698 0,-1.562 0.54,-2.756 1.626,-3.578 1.084,-0.825 2.428,-1.541 4.033,-2.146 1.603,-0.608 3.358,-1.194 5.267,-1.756 1.907,-0.566 3.664,-1.345 5.269,-2.342 1.604,-0.998 2.948,-2.321 4.033,-3.968 1.082,-1.648 1.626,-3.838 1.626,-6.57 0,-2.47 -0.456,-4.629 -1.366,-6.472 -0.91,-1.843 -2.136,-3.371 -3.676,-4.584 -1.538,-1.216 -3.328,-2.126 -5.366,-2.732 -2.038,-0.608 -4.184,-0.911 -6.439,-0.911 -2.86,0 -5.616,0.477 -8.259,1.431 -2.647,0.953 -4.923,2.557 -6.83,4.812 l 6.179,5.986 c 0.996,-1.519 2.31,-2.701 3.936,-3.547 1.626,-0.844 3.348,-1.268 5.17,-1.268 0.954,0 1.907,0.131 2.863,0.391 0.951,0.259 1.821,0.651 2.601,1.17 0.779,0.522 1.409,1.183 1.885,1.984 0.477,0.803 0.715,1.725 0.715,2.765 0,1.692 -0.541,2.991 -1.625,3.902 -1.086,0.91 -2.429,1.681 -4.031,2.31 -1.607,0.627 -3.361,1.225 -5.272,1.788 -1.906,0.562 -3.663,1.335 -5.267,2.31 -1.604,0.974 -2.949,2.276 -4.03,3.902 -1.085,1.626 -1.629,3.804 -1.629,6.536 0,2.384 0.489,4.446 1.464,6.179 0.977,1.736 2.254,3.178 3.837,4.327 1.583,1.149 3.392,2.004 5.433,2.569 2.036,0.563 4.117,0.844 6.243,0.844 2.427,0 4.78,-0.367 7.056,-1.106 C 2.112,9.213 4.163,8 5.983,6.308 L 0,0 Z"
             style="fill:#ffffff;fill-opacity:1;fill-rule:nonzero;stroke:none"
             id="path64"
             inkscape:connector-curvature="0" />
        </g>
        <path
           d="m 1517.449,1496.768 -33.411,0 0,6.61 33.411,0 0,-6.61 z"
           style="fill:#ffffff;fill-opacity:1;fill-rule:nonzero;stroke:none"
           id="path66"
           inkscape:connector-curvature="0" />
        <path
           d="m 1302.706,1373.726 274.588,0 0,-3.585 -274.588,0 0,3.585 z"
           style="fill:#282828;fill-opacity:1;fill-rule:nonzero;stroke:none"
           id="path68"
           inkscape:connector-curvature="0" />
        <g
           id="g70"
           transform="translate(1350.4961,1350.5259)">
          <path
             d="m 0,0 17.637,0 0,-4.912 -12.1,0 0,-31.702 12.1,0 0,-4.912 L 0,-41.526 0,0 Z"
             style="fill:#282828;fill-opacity:1;fill-rule:nonzero;stroke:none"
             id="path72"
             inkscape:connector-curvature="0" />
        </g>
        <g
           id="g74"
           transform="translate(1385.6362,1323.5566)">
          <path
             d="m 0,0 c 1.131,0 2.136,0.274 3.014,0.826 0.878,0.55 1.451,1.346 1.719,2.389 l 0,9.466 c -0.417,0.327 -0.99,0.572 -1.719,0.736 -0.73,0.164 -1.496,0.246 -2.3,0.246 -0.803,0 -1.585,-0.134 -2.344,-0.402 C -2.389,12.993 -3.059,12.569 -3.639,11.989 -4.22,11.408 -4.681,10.656 -5.023,9.734 -5.366,8.811 -5.537,7.68 -5.537,6.34 -5.537,4.435 -5.061,2.902 -4.108,1.741 -3.155,0.581 -1.786,0 0,0 m 1.206,26.969 9.332,0 0,-19.289 c 0,-2.233 0.118,-4.436 0.357,-6.609 0,-0.149 0.015,-0.298 0.044,-0.446 l 2.858,0 0,-4.912 -7.189,0 -0.58,2.858 -0.179,0 C 5.552,-1.965 5.149,-2.441 4.644,-2.858 4.137,-3.275 3.572,-3.639 2.947,-3.952 2.322,-4.265 1.637,-4.502 0.893,-4.666 0.149,-4.83 -0.596,-4.912 -1.339,-4.912 c -1.4,0 -2.717,0.224 -3.952,0.67 -1.236,0.447 -2.315,1.138 -3.237,2.076 -0.924,0.938 -1.652,2.128 -2.188,3.572 -0.536,1.444 -0.804,3.148 -0.804,5.113 0,1.905 0.29,3.602 0.871,5.09 0.58,1.488 1.384,2.746 2.411,3.773 1.027,1.027 2.239,1.816 3.639,2.367 1.399,0.55 2.932,0.826 4.599,0.826 0.922,0 1.793,-0.053 2.612,-0.156 0.819,-0.105 1.525,-0.276 2.121,-0.514 l 0,4.153 -3.527,0 0,4.911 z"
             style="fill:#282828;fill-opacity:1;fill-rule:nonzero;stroke:none"
             id="path76"
             inkscape:connector-curvature="0" />
        </g>
        <g
           id="g78"
           transform="translate(1411.5874,1323.6904)">
          <path
             d="M 0,0 C 1.412,0 2.472,0.26 3.179,0.781 3.884,1.302 4.4,1.86 4.724,2.456 l 0,2.679 C 4.43,5.194 3.988,5.261 3.399,5.336 2.81,5.41 2.177,5.447 1.5,5.447 0.941,5.447 0.382,5.395 -0.177,5.291 -0.737,5.187 -1.237,5.023 -1.678,4.8 -2.12,4.577 -2.473,4.287 -2.738,3.929 -3.003,3.572 -3.135,3.141 -3.135,2.634 -3.135,1.801 -2.892,1.153 -2.406,0.692 -1.921,0.23 -1.119,0 0,0 m -7.6,16.387 c 1.19,0.536 2.568,0.997 4.13,1.384 1.563,0.387 3.416,0.581 5.559,0.581 1.548,0 2.865,-0.186 3.952,-0.558 1.086,-0.373 1.965,-0.901 2.635,-1.586 0.669,-0.685 1.153,-1.503 1.451,-2.455 0.297,-0.953 0.446,-2.025 0.446,-3.215 0,-1.518 -0.052,-2.813 -0.156,-3.885 C 10.313,5.582 10.261,4.628 10.261,3.795 10.261,3.17 10.29,2.47 10.35,1.697 10.41,1.279 10.454,0.878 10.484,0.491 l 2.902,0 0,-4.911 -7.495,0 -0.587,3.036 -0.221,0 c -0.592,-0.923 -1.436,-1.72 -2.53,-2.389 -1.095,-0.67 -2.574,-1.005 -4.438,-1.005 -2.219,0 -3.979,0.595 -5.281,1.786 -1.302,1.191 -1.952,2.769 -1.952,4.734 0,1.25 0.229,2.328 0.687,3.237 0.459,0.907 1.124,1.652 1.997,2.232 0.872,0.581 1.922,1.012 3.15,1.295 1.227,0.283 2.595,0.425 4.104,0.425 0.532,0 1.095,-0.031 1.686,-0.09 C 3.098,8.781 3.822,8.722 4.68,8.663 4.739,8.959 4.769,9.258 4.769,9.555 l 0,0.849 c 0,1.131 -0.326,1.942 -0.976,2.433 -0.65,0.492 -1.611,0.737 -2.881,0.737 -1.508,0 -2.868,-0.194 -4.079,-0.58 -1.211,-0.388 -2.231,-0.775 -3.059,-1.161 L -7.6,16.387 Z"
             style="fill:#282828;fill-opacity:1;fill-rule:nonzero;stroke:none"
             id="path80"
             inkscape:connector-curvature="0" />
        </g>
        <g
           id="g82"
           transform="translate(1431.939,1336.6841)">
          <path
             d="m 0,0 -4.42,0 0,4.912 4.42,0 0,5.09 5.805,1.652 0,-6.742 11.698,0 0,-4.912 -11.698,0 0,-6.385 c 0,-2.293 0.431,-3.952 1.295,-4.979 0.863,-1.027 2.068,-1.54 3.616,-1.54 0.804,0 1.534,0.096 2.188,0.29 0.655,0.193 1.243,0.439 1.764,0.737 0.521,0.297 0.998,0.625 1.429,0.982 0.431,0.357 0.826,0.685 1.183,0.982 l 2.679,-4.019 c -0.506,-0.595 -1.138,-1.138 -1.897,-1.629 -0.76,-0.491 -1.578,-0.923 -2.456,-1.295 -0.879,-0.373 -1.794,-0.662 -2.746,-0.871 -0.953,-0.208 -1.891,-0.313 -2.814,-0.313 -3.334,0 -5.842,0.931 -7.523,2.791 C 0.841,-13.389 0,-10.434 0,-6.385 L 0,0 Z"
             style="fill:#282828;fill-opacity:1;fill-rule:nonzero;stroke:none"
             id="path84"
             inkscape:connector-curvature="0" />
        </g>
        <g
           id="g86"
           transform="translate(1461.0957,1330.4326)">
          <path
             d="M 0,0 C 0,-0.982 0.135,-1.891 0.402,-2.724 0.67,-3.557 1.057,-4.286 1.563,-4.912 2.069,-5.537 2.68,-6.021 3.394,-6.363 4.108,-6.705 4.927,-6.876 5.85,-6.876 c 1.726,0 3.132,0.55 4.219,1.652 1.086,1.101 1.63,2.842 1.63,5.224 0,2.054 -0.507,3.713 -1.518,4.979 C 9.169,6.244 7.726,6.876 5.85,6.876 5.016,6.876 4.242,6.75 3.528,6.497 2.813,6.244 2.195,5.834 1.675,5.269 1.153,4.703 0.744,3.989 0.447,3.126 0.149,2.262 0,1.221 0,0 m -5.982,0 c 0,1.875 0.282,3.542 0.847,5.001 0.566,1.458 1.369,2.694 2.411,3.706 1.042,1.012 2.285,1.778 3.729,2.3 1.443,0.52 3.058,0.781 4.845,0.781 1.876,0 3.549,-0.283 5.023,-0.848 1.474,-0.566 2.716,-1.362 3.729,-2.389 1.011,-1.027 1.778,-2.27 2.299,-3.728 0.521,-1.459 0.782,-3.067 0.782,-4.823 0,-1.875 -0.284,-3.542 -0.849,-5 -0.565,-1.459 -1.369,-2.695 -2.411,-3.707 -1.042,-1.012 -2.285,-1.779 -3.729,-2.299 -1.444,-0.521 -3.058,-0.782 -4.844,-0.782 -1.875,0 -3.55,0.283 -5.024,0.849 -1.472,0.565 -2.717,1.361 -3.727,2.388 -1.013,1.028 -1.78,2.27 -2.3,3.729 -0.522,1.458 -0.781,3.066 -0.781,4.822"
             style="fill:#282828;fill-opacity:1;fill-rule:nonzero;stroke:none"
             id="path88"
             inkscape:connector-curvature="0" />
        </g>
        <g
           id="g90"
           transform="translate(1498.29,1325.4321)">
          <path
             d="m 0,0 c 0,0.595 -0.364,1.071 -1.094,1.428 -0.729,0.358 -1.629,0.685 -2.701,0.983 -1.071,0.297 -2.248,0.603 -3.527,0.915 -1.281,0.313 -2.456,0.744 -3.528,1.295 -1.072,0.551 -1.972,1.25 -2.702,2.099 -0.729,0.848 -1.094,1.942 -1.094,3.282 0,1.101 0.247,2.068 0.738,2.902 0.491,0.833 1.16,1.54 2.009,2.121 0.848,0.58 1.86,1.019 3.036,1.317 1.176,0.298 2.448,0.447 3.818,0.447 1.458,0 2.738,-0.105 3.84,-0.313 1.101,-0.208 2.06,-0.462 2.88,-0.759 0.818,-0.298 1.518,-0.633 2.098,-1.005 0.581,-0.372 1.08,-0.707 1.497,-1.004 L 2.813,9.734 c -0.446,0.268 -0.959,0.542 -1.54,0.826 -0.581,0.282 -1.191,0.543 -1.831,0.781 -0.64,0.238 -1.31,0.431 -2.009,0.58 -0.7,0.149 -1.392,0.224 -2.077,0.224 -1.25,0 -2.262,-0.164 -3.036,-0.491 -0.774,-0.328 -1.161,-0.834 -1.161,-1.519 0,-0.535 0.364,-0.967 1.095,-1.294 C -7.018,8.513 -6.117,8.208 -5.045,7.925 -3.974,7.642 -2.798,7.337 -1.518,7.01 -0.238,6.682 0.938,6.258 2.01,5.737 3.081,5.216 3.981,4.539 4.711,3.706 5.44,2.872 5.805,1.8 5.805,0.491 c 0,-2.263 -0.826,-4.041 -2.478,-5.336 -1.652,-1.295 -4.1,-1.943 -7.345,-1.943 -2.56,0 -4.771,0.38 -6.631,1.139 -1.861,0.759 -3.357,1.645 -4.488,2.657 l 2.68,4.197 c 0.387,-0.328 0.899,-0.692 1.54,-1.094 0.64,-0.402 1.362,-0.766 2.166,-1.093 0.804,-0.329 1.659,-0.603 2.567,-0.827 0.908,-0.223 1.809,-0.335 2.702,-0.335 0.952,0 1.77,0.164 2.456,0.492 C -0.342,-1.325 0,-0.774 0,0"
             style="fill:#282828;fill-opacity:1;fill-rule:nonzero;stroke:none"
             id="path92"
             inkscape:connector-curvature="0" />
        </g>
        <g
           id="g94"
           transform="translate(1529.7695,1309)">
          <path
             d="m 0,0 -17.638,0 0,4.912 12.101,0 0,31.702 -12.101,0 0,4.912 L 0,41.526 0,0 Z"
             style="fill:#282828;fill-opacity:1;fill-rule:nonzero;stroke:none"
             id="path96"
             inkscape:connector-curvature="0" />
        </g>
      </g>
    </g>
  </g>
</svg>
